{
  "accessors": [
    {
      "bufferView": 3,
      "componentType": 5126,
      "count": 47,
      "max": [
        0.08192101120948792,
        2.238356351852417,
        0.44619300961494446
      ],
      "min": [
        -0.08192101120948792,
        2.0095038414001465,
        0.13215336203575134
      ],
      "type": "VEC3"
    },
    {
      "bufferView": 3,
      "byteOffset": 564,
      "componentType": 5126,
      "count": 47,
      "max": [
        0.9998157024383545,
        0.9504699110984802,
        0.7970231175422668
      ],
      "min": [
        -0.9998157024383545,
        -0.9991449117660522,
        -0.04792677238583565
      ],
      "type": "VEC3"
    },
    {
      "bufferView": 2,
      "componentType": 5126,
      "count": 47,
      "max": [
        0.20273804664611816,
        0.8711850643157959
      ],
      "min": [
        0.003983736969530582,
        0.5734357833862305
      ],
      "type": "VEC2"
    },
    {
      "bufferView": 1,
      "componentType": 5125,
      "count": 180,
      "type": "SCALAR"
    },
    {
      "bufferView": 3,
      "byteOffset": 1128,
      "componentType": 5126,
      "count": 124,
      "max": [
        0.1741766482591629,
        1.8451226949691772,
        0.3132812976837158
      ],
      "min": [
        -0.18049663305282593,
        1.6864464282989502,
        0.1716109663248062
      ],
      "type": "VEC3"
    },
    {
      "bufferView": 3,
      "byteOffset": 2616,
      "componentType": 5126,
      "count": 124,
      "max": [
        0.811440646648407,
        0.9426817893981934,
        0.9787580370903015
      ],
      "min": [
        -0.809056282043457,
        -0.7577224969863892,
        -0.9982580542564392
      ],
      "type": "VEC3"
    },
    {
      "bufferView": 4,
      "componentType": 5126,
      "count": 124,
      "max": [
        0.21960784494876862,
        0.21960784494876862,
        0.21960784494876862,
        1.0
      ],
      "min": [
        0.21960784494876862,
        0.21960784494876862,
        0.21960784494876862,
        1.0
      ],
      "type": "VEC4"
    },
    {
      "bufferView": 2,
      "byteOffset": 376,
      "componentType": 5126,
      "count": 124,
      "max": [
        0.99273681640625,
        0.9859264492988586
      ],
      "min": [
        0.03583994507789612,
        0.00590437650680542
      ],
      "type": "VEC2"
    },
    {
      "bufferView": 1,
      "byteOffset": 720,
      "componentType": 5125,
      "count": 276,
      "type": "SCALAR"
    },
    {
      "bufferView": 3,
      "byteOffset": 4104,
      "componentType": 5126,
      "count": 236,
      "max": [
        0.3325129747390747,
        2.636113166809082,
        0.36276841163635254
      ],
      "min": [
        -0.3325129747390747,
        1.7590727806091309,
        -0.38198578357696533
      ],
      "type": "VEC3"
    },
    {
      "bufferView": 3,
      "byteOffset": 6936,
      "componentType": 5126,
      "count": 236,
      "max": [
        0.9876890182495117,
        0.9963609576225281,
        0.9988893866539001
      ],
      "min": [
        -0.9989882111549377,
        -0.9806270003318787,
        -0.9897974133491516
      ],
      "type": "VEC3"
    },
    {
      "bufferView": 2,
      "byteOffset": 1368,
      "componentType": 5126,
      "count": 236,
      "max": [
        0.9937288761138916,
        0.9873638153076172
      ],
      "min": [
        0.007530448958277702,
        0.007813185453414917
      ],
      "type": "VEC2"
    },
    {
      "bufferView": 1,
      "byteOffset": 1824,
      "componentType": 5125,
      "count": 1152,
      "type": "SCALAR"
    },
    {
      "bufferView": 3,
      "byteOffset": 9768,
      "componentType": 5126,
      "count": 1556,
      "max": [
        1.1659181118011475,
        1.8826040029525757,
        0.27479642629623413
      ],
      "min": [
        -1.1659181118011475,
        -5.343368769672452e-08,
        -0.19729909300804138
      ],
      "type": "VEC3"
    },
    {
      "bufferView": 3,
      "byteOffset": 28440,
      "componentType": 5126,
      "count": 1556,
      "max": [
        0.9996428489685059,
        0.9966225624084473,
        0.998595118522644
      ],
      "min": [
        -0.9973233342170715,
        -1.0,
        -0.9990774393081665
      ],
      "type": "VEC3"
    },
    {
      "bufferView": 2,
      "byteOffset": 3256,
      "componentType": 5126,
      "count": 1556,
      "max": [
        0.9934462904930115,
        0.9947195649147034
      ],
      "min": [
        0.005544692277908325,
        0.007871925830841064
      ],
      "type": "VEC2"
    },
    {
      "bufferView": 1,
      "byteOffset": 6432,
      "componentType": 5125,
      "count": 7608,
      "type": "SCALAR"
    },
    {
      "bufferView": 5,
      "componentType": 5126,
      "count": 25,
      "max": [
        1.0,
        0.019509263336658478,
        1.0,
        0.0,
        1.0,
        1.0,
        8.317894712849688e-14,
        0.0,
        1.0,
        0.9979517459869385,
        1.0,
        0.0,
        0.847369372844696,
        1.6716400384902954,
        0.13952746987342834,
        1.0
      ],
      "min": [
        -0.9998042583465576,
        -0.01950981095433235,
        -1.0,
        0.0,
        -0.9824162721633911,
        -1.0,
        -4.850937360134644e-14,
        0.0,
        -1.0,
        -1.0,
        -1.0,
        0.0,
        -1.799523949623108,
        -1.6975144147872925,
        -0.13952746987342834,
        1.0
      ],
      "type": "MAT4"
    },
    {
      "bufferView": 0,
      "componentType": 5123,
      "count": 236,
      "type": "VEC4"
    },
    {
      "bufferView": 4,
      "byteOffset": 1984,
      "componentType": 5126,
      "count": 236,
      "max": [
        1.0,
        0.0,
        0.0,
        0.0
      ],
      "min": [
        1.0,
        0.0,
        0.0,
        0.0
      ],
      "type": "VEC4"
    },
    {
      "bufferView": 0,
      "byteOffset": 1888,
      "componentType": 5123,
      "count": 1556,
      "type": "VEC4"
    },
    {
      "bufferView": 4,
      "byteOffset": 5760,
      "componentType": 5126,
      "count": 1556,
      "max": [
        1.0,
        0.4996536672115326,
        0.28806132078170776,
        0.0
      ],
      "min": [
        0.3725426495075226,
        0.0,
        0.0,
        0.0
      ],
      "type": "VEC4"
    }
  ],
  "asset": {
    "extras": {
      "author": "animatezach (https://sketchfab.com/animatezach)",
      "license": "CC-BY-NC-ND-4.0 (http://creativecommons.org/licenses/by-nc-nd/4.0/)",
      "source": "https://sketchfab.com/3d-models/matt-mii-rig-5582d0a7ec8e4b79810ac28e5bd610a4",
      "title": "Matt Mii Rig"
    },
    "generator": "Sketchfab-15.30.0",
    "version": "2.0"
  },
  "bufferViews": [
    {
      "buffer": 0,
      "byteLength": 14336,
      "byteStride": 8,
      "name": "shortBufferViews",
      "target": 34962
    },
    {
      "buffer": 0,
      "byteLength": 36864,
      "byteOffset": 14336,
      "name": "floatBufferViews",
      "target": 34963
    },
    {
      "buffer": 0,
      "byteLength": 15704,
      "byteOffset": 51200,
      "byteStride": 8,
      "name": "floatBufferViews",
      "target": 34962
    },
    {
      "buffer": 0,
      "byteLength": 47112,
      "byteOffset": 66904,
      "byteStride": 12,
      "name": "floatBufferViews",
      "target": 34962
    },
    {
      "buffer": 0,
      "byteLength": 30656,
      "byteOffset": 114016,
      "byteStride": 16,
      "name": "floatBufferViews",
      "target": 34962
    },
    {
      "buffer": 0,
      "byteLength": 1600,
      "byteOffset": 144672,
      "name": "floatBufferViews"
    }
  ],
  "buffers": [
    {
      "byteLength": 146272,
      "uri": "scene.bin"
    }
  ],
  "extensionsUsed": [
    "KHR_materials_specular"
  ],
  "images": [
    {
      "uri": "textures/Matt_Head_aiSS_01_baseColor.png"
    },
    {
      "uri": "textures/Matt_Head_aiSS_01_specularf0.png"
    },
    {
      "uri": "textures/Matt_Body_aiSS_baseColor.png"
    },
    {
      "uri": "textures/Matt_Body_aiSS_specularf0.png"
    }
  ],
  "materials": [
    {
      "doubleSided": true,
      "extensions": {
        "KHR_materials_specular": {
          "specularColorFactor": [
            1.0,
            1.0,
            1.0
          ],
          "specularFactor": 1.0,
          "specularTexture": {
            "index": 1
          }
        }
      },
      "name": "Matt_Head_aiSS_01",
      "pbrMetallicRoughness": {
        "baseColorTexture": {
          "index": 0
        },
        "metallicFactor": 0.0,
        "roughnessFactor": 0.6
      }
    },
    {
      "doubleSided": true,
      "extensions": {
        "KHR_materials_specular": {
          "specularColorFactor": [
            1.0,
            1.0,
            1.0
          ],
          "specularFactor": 1.0,
          "specularTexture": {
            "index": 3
          }
        }
      },
      "name": "Matt_Body_aiSS",
      "pbrMetallicRoughness": {
        "baseColorTexture": {
          "index": 2
        },
        "metallicFactor": 0.0,
        "roughnessFactor": 0.6
      }
    }
  ],
  "meshes": [
    {
      "name": "Matt_Nose_GEO_Matt_Head_aiSS_01_0",
      "primitives": [
        {
          "attributes": {
            "NORMAL": 1,
            "POSITION": 0,
            "TEXCOORD_0": 2
          },
          "indices": 3,
          "material": 0,
          "mode": 4
        }
      ]
    },
    {
      "name": "Matt_Goat_GEO_Matt_Head_aiSS_01_0",
      "primitives": [
        {
          "attributes": {
            "COLOR_0": 6,
            "NORMAL": 5,
            "POSITION": 4,
            "TEXCOORD_0": 7
          },
          "indices": 8,
          "material": 0,
          "mode": 4
        }
      ]
    },
    {
      "name": "Matt_Head_GEO_01_Matt_Head_aiSS_01_0",
      "primitives": [
        {
          "attributes": {
            "JOINTS_0": 18,
            "NORMAL": 10,
            "POSITION": 9,
            "TEXCOORD_0": 11,
            "WEIGHTS_0": 19
          },
          "indices": 12,
          "material": 0,
          "mode": 4
        }
      ]
    },
    {
      "name": "Matt_Body_GEO_Matt_Body_aiSS_0",
      "primitives": [
        {
          "attributes": {
            "JOINTS_0": 20,
            "NORMAL": 14,
            "POSITION": 13,
            "TEXCOORD_0": 15,
            "WEIGHTS_0": 21
          },
          "indices": 16,
          "material": 1,
          "mode": 4
        }
      ]
    }
  ],
  "nodes": [
    {
      "children": [
        1
      ],
      "matrix": [
        1.0,
        0.0,
        0.0,
        0.0,
        0.0,
        2.220446049250313e-16,
        -1.0,
        0.0,
        0.0,
        1.0,
        2.220446049250313e-16,
        0.0,
        0.0,
        0.0,
        0.0,
        1.0
      ],
      "name": "Sketchfab_model"
    },
    {
      "children": [
        2
      ],
      "matrix": [
        0.009999999776482582,
        0.0,
        0.0,
        0.0,
        0.0,
        0.0,
        0.009999999776482582,
        0.0,
        0.0,
        -0.009999999776482582,
        0.0,
        0.0,
        0.0,
        0.0,
        0.0,
        1.0
      ],
      "name": "Matt.fbx"
    },
    {
      "children": [
        3
      ],
      "name": "RootNode"
    },
    {
      "children": [
        4
      ],
      "name": "MATT_RIG"
    },
    {
      "children": [
        5
      ],
      "name": "Matt_WRLD_CTL"
    },
    {
      "children": [
        6,
        36,
        38,
        35,
        37
      ],
      "name": "Object_5"
    },
    {
      "children": [
        7
      ],
      "name": "_rootJoint"
    },
    {
      "children": [
        8,
        26
      ],
      "name": "Matt_Root_JT_00",
      "translation": [
        0.0,
        0.9476993680000305,
        0.16721077263355255
      ]
    },
    {
      "children": [
        9
      ],
      "name": "Matt_Spine_JT_01_01",
      "rotation": [
        -0.4985986649990082,
        -0.49429774284362793,
        0.4778220057487488,
        0.527972936630249
      ],
      "translation": [
        0.0,
        0.085181325674057,
        -0.02166912704706192
      ]
    },
    {
      "children": [
        10
      ],
      "name": "Matt_Spine_JT_02_02",
      "rotation": [
        0.9969598054885864,
        0.07272200286388397,
        -0.02751556970179081,
        -0.00507328612729907
      ],
      "translation": [
        0.1850215196609497,
        4.163336342344337e-17,
        6.938893903907228e-18
      ]
    },
    {
      "children": [
        11
      ],
      "name": "Matt_Spine_JT_03_03",
      "rotation": [
        0.06310777366161346,
        -0.002693028887733817,
        -0.0841439887881279,
        0.9944495558738708
      ],
      "translation": [
        0.10235410928726196,
        0.0,
        0.0
      ]
    },
    {
      "children": [
        12,
        17
      ],
      "name": "Matt_Spine_JT_04_04",
      "rotation": [
        -0.3959631025791168,
        -0.5305622816085815,
        -0.46366360783576965,
        0.5888403058052063
      ],
      "translation": [
        0.23765842616558075,
        0.02946183830499649,
        2.7755575615628914e-17
      ]
    },
    {
      "children": [
        13,
        15
      ],
      "name": "Matt_Neck_JT_05",
      "rotation": [
        -0.5060697197914124,
        -0.49608585238456726,
        0.4170224368572235,
        0.5691085457801819
      ],
      "translation": [
        0.0,
        0.11546336859464645,
        0.017565837129950523
      ]
    },
    {
      "children": [
        14
      ],
      "matrix": [
        4.440892098500626e-16,
        0.0,
        -1.0,
        0.0,
        1.0,
        0.0,
        4.440892098500626e-16,
        0.0,
        0.0,
        -1.0,
        0.0,
        0.0,
        -1.799523949623108,
        0.0006069025257602334,
        0.0,
        1.0
      ],
      "name": "Matt_Nose_GEO"
    },
    {
      "mesh": 0,
      "name": "Matt_Nose_GEO_Matt_Head_aiSS_01_0"
    },
    {
      "children": [
        16
      ],
      "matrix": [
        4.440892098500626e-16,
        0.0,
        -1.0,
        0.0,
        1.0,
        0.0,
        4.440892098500626e-16,
        0.0,
        0.0,
        -1.0,
        0.0,
        0.0,
        -1.799523949623108,
        0.0006069025257602334,
        0.0,
        1.0
      ],
      "name": "Matt_Goat_GEO"
    },
    {
      "mesh": 1,
      "name": "Matt_Goat_GEO_Matt_Head_aiSS_01_0"
    },
    {
      "children": [
        18,
        22
      ],
      "name": "Matt_Sternum_JT_06",
      "rotation": [
        -1.0408340855860843e-17,
        1.942890293094024e-16,
        -2.0036056147532122e-16,
        1.0
      ],
      "translation": [
        0.0,
        -0.06959918141365051,
        0.12459306418895721
      ]
    },
    {
      "children": [
        19
      ],
      "name": "Matt_Cavicle_L_JT_07",
      "rotation": [
        -0.0011956138769164681,
        0.04865632951259613,
        -0.024536101147532463,
        0.9985134601593018
      ],
      "translation": [
        0.08757085353136063,
        0.057183630764484406,
        -0.032844509929418564
      ]
    },
    {
      "children": [
        20
      ],
      "name": "Matt_Shoulder_L_JT_08",
      "rotation": [
        0.08434759080410004,
        0.18292266130447388,
        -0.44125956296920776,
        0.8744797110557556
      ],
      "translation": [
        0.08173277229070663,
        0.022872762754559517,
        -0.0747896209359169
      ]
    },
    {
      "children": [
        21
      ],
      "name": "Matt_Elbow_L_JT_09",
      "rotation": [
        0.001153736375272274,
        -0.8639493584632874,
        -0.0013433906715363264,
        0.5035755634307861
      ],
      "translation": [
        0.4141238033771515,
        0.0,
        -5.551115123125783e-17
      ]
    },
    {
      "name": "Matt_Wrist_L_JT_010",
      "rotation": [
        0.08329664170742035,
        -0.029647041112184525,
        -0.06724660098552704,
        0.9938112497329712
      ],
      "translation": [
        0.3518979251384735,
        0.0,
        3.3306690738754696e-16
      ]
    },
    {
      "children": [
        23
      ],
      "name": "Matt_Cavicle_R_JT_011",
      "rotation": [
        0.9950131177902222,
        -0.012458901852369308,
        -0.09896239638328552,
        -0.0003287754952907562
      ],
      "translation": [
        -0.08757089823484421,
        0.05717866122722626,
        -0.032844509929418564
      ]
    },
    {
      "children": [
        24
      ],
      "name": "Matt_Shoulder_R_JT_012",
      "rotation": [
        -0.19075316190719604,
        0.23065167665481567,
        0.8634273409843445,
        0.406086802482605
      ],
      "translation": [
        -0.08267570286989212,
        -0.022877732291817665,
        0.07487168908119202
      ]
    },
    {
      "children": [
        25
      ],
      "name": "Matt_Elbow_R_JT_013",
      "rotation": [
        -0.001394506311044097,
        0.7477425932884216,
        -0.001092375605367124,
        0.663986325263977
      ],
      "translation": [
        0.41412395238876343,
        2.220446049250313e-16,
        1.1102230246251565e-16
      ]
    },
    {
      "name": "Matt_Wrist_R_JT_014",
      "rotation": [
        0.0056457300670444965,
        0.020714158192276955,
        -0.052127379924058914,
        0.998409628868103
      ],
      "translation": [
        0.35189777612686157,
        -6.661338147750939e-16,
        -2.7755575615628914e-16
      ]
    },
    {
      "children": [
        27,
        31
      ],
      "name": "Matt_Hip_JT_015",
      "rotation": [
        0.005091689992696047,
        0.12474051862955093,
        0.02792874537408352,
        0.9917832016944885
      ],
      "translation": [
        0.0,
        -0.0686725527048111,
        0.0
      ]
    },
    {
      "children": [
        28
      ],
      "name": "Matt_Leg_R_JT_016",
      "rotation": [
        0.6509814262390137,
        0.17047898471355438,
        -0.6275599002838135,
        -0.3915720283985138
      ],
      "translation": [
        -0.13952699303627014,
        -0.14216308295726776,
        -0.02338273823261261
      ]
    },
    {
      "children": [
        29
      ],
      "name": "Matt_Knee_R_JT_017",
      "rotation": [
        8.114091237729486e-17,
        1.7113327934872776e-16,
        -0.5562145709991455,
        0.8310387134552002
      ],
      "translation": [
        -0.38014698028564453,
        -0.018786383792757988,
        0.0
      ]
    },
    {
      "children": [
        30
      ],
      "name": "Matt_Ankle_R_JT_018",
      "rotation": [
        0.03812184929847717,
        -0.132460355758667,
        0.6176744699478149,
        0.7742605805397034
      ],
      "translation": [
        -0.34253373742103577,
        -0.001899442169815302,
        5.551115123125783e-17
      ]
    },
    {
      "name": "Matt_Ball_R_JT_019",
      "rotation": [
        -1.0550790241481423e-09,
        -3.79095810298935e-10,
        0.3381408452987671,
        0.9410955309867859
      ],
      "translation": [
        -0.19902803003787994,
        -3.215947330659219e-08,
        -5.551115123125783e-17
      ]
    },
    {
      "children": [
        32
      ],
      "name": "Matt_Leg_L_JT_020",
      "rotation": [
        0.6442553997039795,
        -0.39957985281944275,
        -0.5166779160499573,
        0.3978879451751709
      ],
      "translation": [
        0.13952746987342834,
        -0.1421629637479782,
        -0.02338274195790291
      ]
    },
    {
      "children": [
        33
      ],
      "name": "Matt_Knee_L_JT_021",
      "rotation": [
        0.9250861406326294,
        -0.3797573745250702,
        -2.967250712821645e-17,
        5.401009304343745e-17
      ],
      "translation": [
        0.3801467716693878,
        0.018786463886499405,
        0.0
      ]
    },
    {
      "children": [
        34
      ],
      "name": "Matt_Ankle_L_JT_022",
      "rotation": [
        0.7819786667823792,
        -0.614023745059967,
        -0.10331347584724426,
        0.028475048020482063
      ],
      "translation": [
        0.34253445267677307,
        -0.00189962366130203,
        2.7755575615628914e-17
      ]
    },
    {
      "name": "Matt_Ball_L_JT_023",
      "rotation": [
        -7.36145366886376e-09,
        -1.08265014731046e-08,
        0.5622803568840027,
        0.8269467949867249
      ],
      "translation": [
        0.199027419090271,
        -5.551115123125783e-17,
        2.7755575615628914e-17
      ]
    },
    {
      "matrix": [
        1.0,
        -2.465190328815662e-32,
        0.0,
        0.0,
        2.465190328815662e-32,
        1.0,
        -1.4928347639376758e-32,
        0.0,
        3.68012182257897e-64,
        1.4928347639376758e-32,
        1.0,
        0.0,
        4.776306262080345e-32,
        0.0,
        0.0,
        1.0
      ],
      "name": "Object_35"
    },
    {
      "mesh": 2,
      "name": "Object_36",
      "skin": 0
    },
    {
      "matrix": [
        1.0,
        -1.5648758398321464e-18,
        -4.336808689942018e-19,
        0.0,
        1.5648758398321464e-18,
        1.0,
        6.347336856505532e-21,
        0.0,
        4.336808689942018e-19,
        -6.3473368565055324e-21,
        1.0,
        0.0,
        0.0,
        -2.220446049250313e-16,
        -4.336808689942018e-19,
        1.0
      ],
      "name": "Object_37"
    },
    {
      "mesh": 3,
      "name": "Object_38",
      "skin": 0
    }
  ],
  "samplers": [
    {
      "magFilter": 9729,
      "minFilter": 9987,
      "wrapS": 10497,
      "wrapT": 10497
    }
  ],
  "scene": 0,
  "scenes": [
    {
      "name": "Sketchfab_Scene",
      "nodes": [
        0
      ]
    }
  ],
  "skins": [
    {
      "inverseBindMatrices": 17,
      "joints": [
        6,
        7,
        8,
        9,
        10,
        11,
        12,
        17,
        18,
        19,
        20,
        21,
        22,
        23,
        24,
        25,
        26,
        27,
        28,
        29,
        30,
        31,
        32,
        33,
        34
      ],
      "skeleton": 6
    }
  ],
  "textures": [
    {
      "sampler": 0,
      "source": 0
    },
    {
      "sampler": 0,
      "source": 1
    },
    {
      "sampler": 0,
      "source": 2
    },
    {
      "sampler": 0,
      "source": 3
    }
  ]
}
